<?xml version="1.0" encoding="UTF-8"?>
<!DOCTYPE svg PUBLIC "-//W3C//DTD SVG 1.1//EN" "http://www.w3.org/Graphics/SVG/1.1/DTD/svg11.dtd">
<svg xmlns="http://www.w3.org/2000/svg" version="1.1" width="64px" height="64px" style="shape-rendering:geometricPrecision; text-rendering:geometricPrecision; image-rendering:optimizeQuality; fill-rule:evenodd; clip-rule:evenodd" xmlns:xlink="http://www.w3.org/1999/xlink">
<g><path style="opacity:0.972" fill="#c124ff" d="M 54.5,13.5 C 53.8333,13.5 53.1667,13.5 52.5,13.5C 51.6906,12.5313 50.6906,11.6979 49.5,11C 37.5,10.3333 25.5,10.3333 13.5,11C 11.3291,12.1739 10.3291,14.0072 10.5,16.5C 9.83333,16.5 9.16667,16.5 8.5,16.5C 8.05484,13.6354 8.7215,11.1354 10.5,9C 24.5,8.33333 38.5,8.33333 52.5,9C 54.0368,10.1096 54.7035,11.6096 54.5,13.5 Z"/></g>
<g><path style="opacity:0.974" fill="#9c35ff" d="M 47.5,28.5 C 46.8333,28.5 46.1667,28.5 45.5,28.5C 45.6602,26.8008 45.4935,25.1341 45,23.5C 43.2962,25.3734 41.4628,27.0401 39.5,28.5C 38.209,28.7373 37.209,28.404 36.5,27.5C 36.5,27.1667 36.5,26.8333 36.5,26.5C 37.1667,26.5 37.5,26.1667 37.5,25.5C 38.1667,25.5 38.5,25.1667 38.5,24.5C 39.9616,23.5423 41.2949,22.3756 42.5,21C 35.1742,20.5003 27.8409,20.3337 20.5,20.5C 18.8333,20.5 17.1667,20.5 15.5,20.5C 25.7809,18.5238 36.4476,17.8572 47.5,18.5C 47.5,21.8333 47.5,25.1667 47.5,28.5 Z"/></g>
<g><path style="opacity:1" fill="#9f33fe" d="M 52.5,13.5 C 53.1667,13.5 53.8333,13.5 54.5,13.5C 54.5,16.5 54.5,19.5 54.5,22.5C 53.8333,22.5 53.1667,22.5 52.5,22.5C 52.5,19.5 52.5,16.5 52.5,13.5 Z"/></g>
<g><path style="opacity:0.669" fill="#843ffe" d="M 15.5,20.5 C 17.1667,20.5 18.8333,20.5 20.5,20.5C 21.5,22.1667 22.8333,23.5 24.5,24.5C 24.5,25.1667 24.8333,25.5 25.5,25.5C 25.5,26.1667 25.8333,26.5 26.5,26.5C 26.5,27.1667 26.8333,27.5 27.5,27.5C 27.5,27.8333 27.5,28.1667 27.5,28.5C 26.1667,28.5 24.8333,28.5 23.5,28.5C 21.5372,27.0401 19.7038,25.3734 18,23.5C 17.5012,27.4862 17.3345,31.4862 17.5,35.5C 16.8333,35.5 16.1667,35.5 15.5,35.5C 15.5,30.5 15.5,25.5 15.5,20.5 Z"/></g>
<g><path style="opacity:1" fill="#9538fe" d="M 8.5,16.5 C 9.16667,16.5 9.83333,16.5 10.5,16.5C 10.5,19.5 10.5,22.5 10.5,25.5C 9.83333,25.5 9.16667,25.5 8.5,25.5C 8.5,22.5 8.5,19.5 8.5,16.5 Z"/></g>
<g><path style="opacity:0.895" fill="#ce9afe" d="M 38.5,24.5 C 37.8333,24.5 37.5,24.8333 37.5,25.5C 36.8333,25.5 36.5,25.8333 36.5,26.5C 36.1667,26.5 35.8333,26.5 35.5,26.5C 32.8333,26.5 30.1667,26.5 27.5,26.5C 27.1667,26.5 26.8333,26.5 26.5,26.5C 25.8333,26.5 25.5,26.1667 25.5,25.5C 24.8333,25.5 24.5,25.1667 24.5,24.5C 26.3972,23.1952 28.7305,22.5286 31.5,22.5C 34.2695,22.5286 36.6028,23.1952 38.5,24.5 Z"/></g>
<g><path style="opacity:0.889" fill="#a5a9fe" d="M 27.5,27.5 C 27.5,27.1667 27.5,26.8333 27.5,26.5C 30.1667,26.5 32.8333,26.5 35.5,26.5C 35.5,26.8333 35.5,27.1667 35.5,27.5C 34.8333,27.5 34.5,27.8333 34.5,28.5C 33.8333,28.5 33.5,28.8333 33.5,29.5C 32.8333,29.5 32.5,29.8333 32.5,30.5C 31.8333,30.5 31.1667,30.5 30.5,30.5C 30.5,29.8333 30.1667,29.5 29.5,29.5C 29.5,28.8333 29.1667,28.5 28.5,28.5C 28.5,27.8333 28.1667,27.5 27.5,27.5 Z"/></g>
<g><path style="opacity:0.846" fill="#6e49ff" d="M 35.5,27.5 C 35.8333,27.5 36.1667,27.5 36.5,27.5C 37.209,28.404 38.209,28.7373 39.5,28.5C 37.5989,29.935 37.2655,31.6017 38.5,33.5C 37.209,33.2627 36.209,33.596 35.5,34.5C 31.838,34.0339 28.5046,34.7006 25.5,36.5C 24.209,36.7373 23.209,36.404 22.5,35.5C 23.4756,34.1851 24.4756,32.8518 25.5,31.5C 24.8075,30.4822 24.1408,29.4822 23.5,28.5C 24.8333,28.5 26.1667,28.5 27.5,28.5C 27.8333,28.5 28.1667,28.5 28.5,28.5C 29.1667,28.5 29.5,28.8333 29.5,29.5C 30.1667,29.5 30.5,29.8333 30.5,30.5C 31.1667,31.8333 31.8333,31.8333 32.5,30.5C 33.1667,30.5 33.5,30.1667 33.5,29.5C 34.1667,29.5 34.5,29.1667 34.5,28.5C 35.1667,28.5 35.5,28.1667 35.5,27.5 Z"/></g>
<g><path style="opacity:1" fill="#7844fe" d="M 52.5,22.5 C 53.1667,22.5 53.8333,22.5 54.5,22.5C 54.5,26.1667 54.5,29.8333 54.5,33.5C 53.8333,33.5 53.1667,33.5 52.5,33.5C 52.5,29.8333 52.5,26.1667 52.5,22.5 Z"/></g>
<g><path style="opacity:1" fill="#6f48fe" d="M 8.5,25.5 C 9.16667,25.5 9.83333,25.5 10.5,25.5C 10.5,28.8333 10.5,32.1667 10.5,35.5C 9.83333,35.5 9.16667,35.5 8.5,35.5C 8.5,32.1667 8.5,28.8333 8.5,25.5 Z"/></g>
<g><path style="opacity:1" fill="#5254fe" d="M 26.5,38.5 C 29.8984,38.1796 33.2317,38.513 36.5,39.5C 34.8333,39.8333 33.1667,40.1667 31.5,40.5C 29.3603,40.4439 27.6936,39.7773 26.5,38.5 Z"/></g>
<g><path style="opacity:0.86" fill="#5b51ff" d="M 45.5,28.5 C 46.1667,28.5 46.8333,28.5 47.5,28.5C 47.5,32.8333 47.5,37.1667 47.5,41.5C 45.7085,41.366 44.0418,41.6993 42.5,42.5C 40.1667,39.8333 37.8333,37.1667 35.5,34.5C 36.209,33.596 37.209,33.2627 38.5,33.5C 40.7966,35.2941 42.9633,37.2941 45,39.5C 45.4986,35.8484 45.6653,32.1817 45.5,28.5 Z"/></g>
<g><path style="opacity:1" fill="#5653fe" d="M 52.5,33.5 C 53.1667,33.5 53.8333,33.5 54.5,33.5C 54.5,36.1667 54.5,38.8333 54.5,41.5C 53.8333,41.5 53.1667,41.5 52.5,41.5C 52.5,38.8333 52.5,36.1667 52.5,33.5 Z"/></g>
<g><path style="opacity:0.958" fill="#4958ff" d="M 15.5,35.5 C 16.1667,35.5 16.8333,35.5 17.5,35.5C 17.3433,36.8734 17.51,38.2068 18,39.5C 19.3712,37.9586 20.8712,36.6253 22.5,35.5C 23.209,36.404 24.209,36.7373 25.5,36.5C 24.0401,38.4628 22.3734,40.2962 20.5,42C 27.8258,42.4997 35.1591,42.6663 42.5,42.5C 44.0418,41.6993 45.7085,41.366 47.5,41.5C 47.5,42.5 47.5,43.5 47.5,44.5C 36.8333,44.5 26.1667,44.5 15.5,44.5C 15.5,41.5 15.5,38.5 15.5,35.5 Z"/></g>
<g><path style="opacity:1" fill="#4859ff" d="M 8.5,35.5 C 9.16667,35.5 9.83333,35.5 10.5,35.5C 10.5,39.1667 10.5,42.8333 10.5,46.5C 9.83333,46.5 9.16667,46.5 8.5,46.5C 8.5,42.8333 8.5,39.1667 8.5,35.5 Z"/></g>
<g><path style="opacity:1" fill="#2469ff" d="M 52.5,41.5 C 53.1667,41.5 53.8333,41.5 54.5,41.5C 54.6653,45.1817 54.4986,48.8484 54,52.5C 53.5,53 53,53.5 52.5,54C 38.5,54.6667 24.5,54.6667 10.5,54C 8.7215,51.8646 8.05484,49.3646 8.5,46.5C 9.16667,46.5 9.83333,46.5 10.5,46.5C 10.3291,48.9928 11.3291,50.8261 13.5,52C 25.5,52.6667 37.5,52.6667 49.5,52C 50.6667,51.5 51.5,50.6667 52,49.5C 52.4974,46.854 52.6641,44.1873 52.5,41.5 Z"/></g>
</svg>
